# xmcd
#
# Track frame offsets: 
#        150
#        18796
#        41515
#        89663
#        124320
#        156149
#
# Disc length: 2373 seconds
#
# Revision: 1
# Processed by: cddbd v1.5.2PL0 Copyright (c) Steve Scherf et al.
# Submitted via: ExactAudioCopyFreeDBPlugin 1.0
#
DISCID=44094306
DTITLE=Chain - Towards The Blues
DYEAR=1971
DGENRE=Blues
TTITLE0=Thirty Two-Twenty Blues
TTITLE1=Snatch It Back and Hold It
TTITLE2=Boogie
TTITLE3=Booze Is Bad News Blues
TTITLE4=Albert Goose's Gonna Turn The Blue's Loose
TTITLE5=Black and Blue
EXTD=
EXTT0=
EXTT1=
EXTT2=
EXTT3=
EXTT4=
EXTT5=
PLAYORDER=
